<svg xmlns="http://www.w3.org/2000/svg" viewBox="0 0 400 300">
<rect width="400" height="300" fill="#f2ede3"/>
<line x1="16" y1="272" x2="384" y2="272" stroke="#23262b" stroke-width="6" stroke-linecap="round"/>
<polyline points="96,251 200,256" fill="none" stroke="#f2ede3" stroke-width="19" stroke-linecap="round" stroke-linejoin="round"/>
<polyline points="96,251 200,256" fill="none" stroke="#1d4f91" stroke-width="12" stroke-linecap="round" stroke-linejoin="round"/>
<polyline points="200,256 262,248 300,263" fill="none" stroke="#f2ede3" stroke-width="19" stroke-linecap="round" stroke-linejoin="round"/>
<polyline points="200,256 262,248 300,263" fill="none" stroke="#1d4f91" stroke-width="12" stroke-linecap="round" stroke-linejoin="round"/>
<polyline points="200,256 252,238 292,261" fill="none" stroke="#f2ede3" stroke-width="19" stroke-linecap="round" stroke-linejoin="round"/>
<polyline points="200,256 252,238 292,261" fill="none" stroke="#1d4f91" stroke-width="12" stroke-linecap="round" stroke-linejoin="round"/>
<polyline points="96,251 60,258 40,250" fill="none" stroke="#f2ede3" stroke-width="19" stroke-linecap="round" stroke-linejoin="round"/>
<polyline points="96,251 60,258 40,250" fill="none" stroke="#1d4f91" stroke-width="12" stroke-linecap="round" stroke-linejoin="round"/>
<polyline points="96,251 135,232 158,228" fill="none" stroke="#f2ede3" stroke-width="19" stroke-linecap="round" stroke-linejoin="round"/>
<polyline points="96,251 135,232 158,228" fill="none" stroke="#1d4f91" stroke-width="12" stroke-linecap="round" stroke-linejoin="round"/>
<circle cx="70" cy="246" r="18.5" fill="#f2ede3"/>
<circle cx="70" cy="246" r="15" fill="#1d4f91"/>
<polyline points="180,195 235,222 266,266" fill="none" stroke="#f2ede3" stroke-width="19" stroke-linecap="round" stroke-linejoin="round"/>
<polyline points="180,195 235,222 266,266" fill="none" stroke="#c8302e" stroke-width="12" stroke-linecap="round" stroke-linejoin="round"/>
<polyline points="180,195 150,239 126,246" fill="none" stroke="#f2ede3" stroke-width="19" stroke-linecap="round" stroke-linejoin="round"/>
<polyline points="180,195 150,239 126,246" fill="none" stroke="#c8302e" stroke-width="12" stroke-linecap="round" stroke-linejoin="round"/>
<polyline points="180,195 196,132" fill="none" stroke="#f2ede3" stroke-width="19" stroke-linecap="round" stroke-linejoin="round"/>
<polyline points="180,195 196,132" fill="none" stroke="#c8302e" stroke-width="12" stroke-linecap="round" stroke-linejoin="round"/>
<polyline points="196,132 178,178 163,215" fill="none" stroke="#f2ede3" stroke-width="19" stroke-linecap="round" stroke-linejoin="round"/>
<polyline points="196,132 178,178 163,215" fill="none" stroke="#c8302e" stroke-width="12" stroke-linecap="round" stroke-linejoin="round"/>
<polyline points="196,132 230,110 250,132" fill="none" stroke="#f2ede3" stroke-width="19" stroke-linecap="round" stroke-linejoin="round"/>
<polyline points="196,132 230,110 250,132" fill="none" stroke="#c8302e" stroke-width="12" stroke-linecap="round" stroke-linejoin="round"/>
<circle cx="201" cy="103" r="18.5" fill="#f2ede3"/>
<circle cx="201" cy="103" r="15" fill="#c8302e"/>
</svg>